<?xml version="1.0" encoding="utf-8"?>
<!-- Generator: Adobe Illustrator 18.1.1, SVG Export Plug-In . SVG Version: 6.00 Build 0)  -->
<!DOCTYPE svg PUBLIC "-//W3C//DTD SVG 1.1//EN" "http://www.w3.org/Graphics/SVG/1.1/DTD/svg11.dtd">
<svg version="1.1" id="Isolation_Mode" xmlns="http://www.w3.org/2000/svg" xmlns:xlink="http://www.w3.org/1999/xlink" x="0px"
	 y="0px" width="200px" height="35px" viewBox="0 0 200 35" enable-background="new 0 0 200 35" xml:space="preserve">
<g>
	<g opacity="0.8">
		<g>
			<path fill="#4D4D4D" d="M24.5,18h-4.7c0,1.6,0.3,3.1,0.8,4.5c1-0.2,2-0.6,2.7-1.3l0,0C24.1,20.4,24.5,19.5,24.5,18L24.5,18z"/>
			<g>
				<path fill="#4E4D4D" d="M34.8,18L34.8,18L34.8,18z"/>
			</g>
			<g>
				<path fill="#4D4D4D" d="M20.6,22.6c-0.2,0-0.5,0.1-0.7,0.1v10.4c2.6,0,5.2-0.8,7.5-2.1c-1.1-0.7-2.2-1.5-3.1-2.4
					C22.6,26.9,21.3,24.9,20.6,22.6"/>
			</g>
			<path fill="#171717" d="M34.8,18H24.5c0,1.4-0.5,2.4-1.4,3.2l0,0c-0.7,0.7-1.6,1.1-2.5,1.3c0.7,2.3,2,4.4,3.7,6
				c0.9,0.9,2,1.7,3.1,2.4c1.1-0.7,2.2-1.5,3.1-2.4l0,0.3C33.1,26.1,34.8,22.2,34.8,18z"/>
			<g>
				<path fill="#262626" d="M9.2,28.6c2.7,2.7,6.5,4.5,10.6,4.5h0.1V33V22.6c0,0,0,0,0,0c-1.3,0-2.5-0.5-3.3-1.4L9.2,28.6z"/>
				<polyline fill="#262626" points="16.5,21.3 16.5,21.3 16.5,21.3 				"/>
			</g>
			<g>
				<path fill="#666666" d="M15.1,17.9H4.8c0,4.2,1.7,8,4.4,10.7l5.6-5.7l1.6-1.6C15.6,20.4,15.1,19.4,15.1,17.9"/>
			</g>
			<g>
				<line fill="#040505" x1="16.5" y1="21.3" x2="16.5" y2="21.3"/>
				<path fill="#040505" d="M16.5,21.3"/>
			</g>
			<g>
				<path fill="#060808" d="M4.8,17.9L4.8,17.9L4.8,17.9z"/>
			</g>
			<g>
				<path fill="#1A1A1A" d="M20,3h-0.2c-4.1,0-7.9,1.6-10.6,4.3l7.3,7.3c0,0,0,0,0,0l0,0c0.9-0.9,2-1.4,3.3-1.4c0,0,0.2,0,0.2,0V3z"
					/>
			</g>
			<path fill="#4D4D4D" d="M16.5,14.6c-0.8,0.9-1.4,2.1-1.4,3.3v0H4.8c0-4.1,1.7-7.9,4.4-10.7l0,0l0,0L16.5,14.6z"/>
			<g>
				<g id="XMLID_7_">
					<g>
						<path fill="#666666" d="M30.4,7.2l-7.3,7.3c-0.9-0.8-2-1.4-3.3-1.4V3C23.8,3,27.7,4.5,30.4,7.2z"/>
					</g>
					<g>
					</g>
				</g>
			</g>
			<path fill="#060808" d="M16.5,14.6"/>
			<path fill="#4D4D4D" d="M34.8,18c0,4.1-1.7,7.8-4.4,10.5l0,0c-0.9,0.9-2,1.7-3.1,2.4c2.2,1.3,4.8,2,7.5,2V18L34.8,18z"/>
		</g>
		<path fill="#FFFFFF" d="M37.5,17.3c0-0.1-0.1-0.2-0.2-0.2l-0.8,0c-0.3,0-0.7,0-1.2-0.1l-0.6,0c-0.1,0-0.1,0-0.2,0
			c0-0.1,0-0.1,0-0.2l0-0.6c0-0.3,0-0.7-0.1-0.9c0-0.4-0.1-0.7-0.1-0.7c0-0.1-0.1-0.2-0.2-0.2l0,0c-0.1,0-0.2,0.1-0.2,0.2
			c0,0,0,0.3,0,0.7c0,0.3,0,0.6-0.1,1c0,0.2,0,0.3,0,0.5c0,0,0,0.1,0,0.1l-9.4,0.1c0,0,0,0,0-0.1c0-0.1,0-0.1,0-0.2
			c-0.1-0.6-0.2-1.2-0.2-1.3c0-0.1-0.1-0.2-0.2-0.2l0,0c-0.1,0-0.2,0.1-0.2,0.2c0,0-0.1,0.6-0.1,1.3c0,0.1,0,0.1,0,0.2l0,0.1
			c0,0,0,0,0,0l-3.9,0c-0.1-0.3-0.1-0.5-0.1-0.5c0-0.1-0.1-0.2-0.2-0.2l0,0c-0.1,0-0.2,0.1-0.2,0.2c0,0-0.1,0.2-0.1,0.5
			c-0.1,0-0.1,0-0.2,0c0,0-0.1,0-0.1,0c-0.4,0.1-0.9,0.1-0.9,0.1c-0.1,0-0.2,0.1-0.2,0.2l0,0c0,0.1,0.1,0.2,0.2,0.2
			c0.1,0,0.5,0.1,0.9,0.1c0,0,0.1,0,0.1,0c0,0,0.1,0,0.1,0c0,0.3,0.1,0.5,0.1,0.8l0,0.1c0.1,0.9,0.2,1.8,0.5,2.8c0,0-0.1,0-0.1,0
			l-0.1,0c-1.1,0-2.2-0.4-3-1.2c-0.9-0.8-1.3-1.8-1.3-3c0-1.1,0.4-2.2,1.2-3c0.8-0.8,1.9-1.3,3-1.3l0.2,0c1,0,1.9,0.4,2.7,1
			c-0.3,0.4-0.6,0.7-0.6,0.7c-0.1,0.1-0.1,0.2,0,0.3l0,0c0.1,0.1,0.2,0.1,0.3,0c0,0,0.3-0.3,0.7-0.6c0.1,0.1,0.1,0.2,0.2,0.3
			c0,0.1,0.1,0.2,0.1,0.2l0,0c0,0.1,0.1,0.2,0.2,0.2l0.1,0c0.1,0,0.2-0.1,0.2-0.3c0,0,0-0.1,0-0.3c0-0.2-0.1-0.4-0.2-0.5l6.8-6.9
			c0.1,0.1,0.1,0.1,0.2,0.2c0.1,0.2,0.3,0.3,0.4,0.5c0.1,0.2,0.3,0.3,0.4,0.5l0.1,0.1c0.1,0.1,0.2,0.3,0.3,0.4l0.6,1
			c0.1,0.1,0.2,0.1,0.3,0.1l0,0c0.1-0.1,0.1-0.2,0.1-0.3C32.2,9.4,32,9,31.8,8.5c-0.1-0.2-0.2-0.3-0.3-0.5c-0.1-0.2-0.2-0.4-0.4-0.5
			L31,7.2c-0.1-0.1-0.2-0.3-0.3-0.4c-0.1-0.1-0.2-0.2-0.2-0.3c0.4-0.5,0.9-1.1,0.9-1.1c0.1-0.1,0.1-0.2,0-0.3l0,0
			C31.1,5,31,5,30.9,5.1c-0.2,0.2-0.6,0.5-1,0.9c-0.1-0.1-0.1-0.1-0.2-0.2c-0.1-0.1-0.2-0.2-0.4-0.3c-2.6-2.2-6.1-3.5-9.7-3.6
			l-0.2,0l0,0l-0.1,0l-0.1,0l-0.3,0c0,0,0,0,0,0l-0.1,0C14.8,2,11.2,3.5,8.4,6.2L7.9,6.7L7.8,6.8C5.2,9.6,3.8,13.2,3.7,17l0,0
			c0,0,0,0,0,0c0,0-0.1,0.1-0.1,0.2l0,0.4c0,0.1,0,0.2,0.1,0.2c0.1,3.8,1.7,7.4,4.3,10.2l0.3,0.3c0,0,0,0,0,0l0.2,0.2c0,0,0,0,0,0
			l0.1,0.1c2.8,2.6,6.5,4.1,10.3,4.2l0.2,0c0,0,0,0,0.1,0c0,0,0,0,0.1,0l0.1,0l0.2,0l0.1,0c2.4-0.1,4.8-0.8,7-2.1
			c2.3,1.3,4.8,1.9,7.4,1.9l0.2,0c0,0,0,0,0.1,0l0,0c0.1,0,0.3,0,0.4,0l0.1,0c0.1,0,0.1,0,0.2,0l0.4,0c0.3,0,0.6,0,0.8-0.1
			c0.3,0,0.6-0.1,0.6-0.1c0.1,0,0.2-0.1,0.2-0.2v0c0-0.1-0.1-0.2-0.2-0.2c0,0-0.2,0-0.6-0.1c-0.2,0-0.5,0-0.9-0.1l-0.4,0
			c-0.1,0-0.2,0-0.3,0c-0.1,0-0.2,0-0.3,0l-0.1-13.3c0-0.1,0-0.2,0.1-0.3c0-0.1,0-0.3,0-0.4c0,0,0.1,0,0.1,0l0.6,0
			c0.4,0,0.8,0,1.1-0.1l0.8-0.1C37.4,17.5,37.5,17.4,37.5,17.3L37.5,17.3z M22.2,20.3c-0.6,0.6-1.3,0.9-2,1.1
			c-0.4-1.2-0.6-2.4-0.6-3.5l3.7,0C23.2,18.9,22.9,19.7,22.2,20.3z M19.9,23.1L19.9,23.1c0,0.1,0.1,0.2,0.1,0.2
			c0.1,0.2,0.2,0.4,0.3,0.6l0.1,0.2c0.1,0.2,0.2,0.4,0.3,0.6l0.1,0.2c0.1,0.2,0.2,0.4,0.3,0.6c0,0.1,0.1,0.1,0.1,0.2
			c0.1,0.2,0.3,0.4,0.4,0.6l0.1,0.2c0.1,0.2,0.3,0.4,0.4,0.6c0,0,0,0.1,0.1,0.1l0,0c0.2,0.2,0.3,0.4,0.5,0.5l0.1,0.1
			c0.2,0.2,0.3,0.4,0.5,0.5l0.1,0.1c0.1,0.1,0.3,0.3,0.5,0.4l0.1,0.1c0.2,0.2,0.3,0.3,0.5,0.4l0.1,0.1c0.2,0.1,0.3,0.3,0.5,0.4
			l0.1,0.1c0.2,0.1,0.4,0.3,0.6,0.4l0,0c-1.9,1-4,1.6-6,1.7l-0.1-9.1C19.8,22.9,19.8,23,19.9,23.1z M25.3,28.8L25.3,28.8
			c-0.3-0.2-0.5-0.4-0.7-0.6c-0.2-0.2-0.4-0.4-0.6-0.6c-0.4-0.4-0.7-0.8-1.1-1.2c-0.2-0.2-0.3-0.4-0.5-0.6c-0.2-0.2-0.3-0.4-0.4-0.7
			c-0.6-0.9-1-1.8-1.4-2.8c0.9-0.2,1.6-0.7,2.3-1.3c0.9-0.8,1.3-1.8,1.4-3.1l8.8-0.1c0.2,0,0.4,0,0.6,0c0,0,0,0,0,0.1
			c0,0.2,0,0.5,0,0.7c0,0.3,0,0.6,0,0.8c0,0,0,0.1,0,0.1c0,0.1,0,0.3-0.1,0.4c0,0.1,0,0.2,0,0.2l0,0.1c0,0.2-0.1,0.4-0.1,0.6l0,0.1
			c0,0.2-0.1,0.3-0.1,0.5l0,0.1c0,0.1-0.1,0.3-0.2,0.5l-0.1,0.2c-0.1,0.2-0.1,0.3-0.2,0.4l-0.1,0.2c0,0.1-0.1,0.2-0.1,0.3l0,0.1
			c0,0.1-0.1,0.1-0.1,0.2c0,0.1-0.1,0.2-0.1,0.3l-0.1,0.1c0,0.1-0.1,0.2-0.1,0.3c0,0.1-0.1,0.1-0.1,0.2l-0.1,0.2
			c0,0.1-0.1,0.1-0.1,0.2c0,0.1-0.1,0.1-0.1,0.2l-0.1,0.1c-0.1,0.1-0.1,0.2-0.2,0.3L31,25.7c-0.1,0.1-0.1,0.2-0.2,0.3
			c0,0,0,0.1-0.1,0.1l-0.1,0.2c-0.1,0.1-0.1,0.2-0.2,0.3c-0.1,0.1-0.1,0.1-0.2,0.2l-0.2,0.2c0,0-0.1,0.1-0.1,0.1
			c-0.2,0.2-0.3,0.4-0.5,0.5l-0.1,0.1c-0.2,0.2-0.3,0.3-0.5,0.5l-0.1,0.1c-0.2,0.1-0.3,0.3-0.6,0.5l-0.1,0.1
			c-0.2,0.1-0.4,0.3-0.6,0.4l-0.2,0.1c-0.2,0.1-0.4,0.3-0.6,0.4l-0.1,0l0,0c-0.2-0.1-0.5-0.3-0.7-0.4l-0.1-0.1
			C25.7,29.1,25.5,28.9,25.3,28.8z M28.9,29.3C28.9,29.3,28.9,29.3,28.9,29.3c0.2-0.2,0.5-0.4,0.6-0.6l0,0c0.2-0.2,0.4-0.4,0.5-0.5
			c0.2-0.2,0.4-0.4,0.6-0.6l0.2-0.2c0.1-0.1,0.2-0.3,0.3-0.4c0.1-0.1,0.1-0.2,0.2-0.2l0,0c0.1-0.1,0.2-0.2,0.3-0.4
			c0.1-0.1,0.1-0.2,0.2-0.3c0.1-0.1,0.2-0.2,0.2-0.4c0.1-0.1,0.1-0.2,0.2-0.3c0.1-0.1,0.2-0.3,0.2-0.4l0-0.1c0-0.1,0.1-0.2,0.1-0.2
			c0.1-0.2,0.2-0.3,0.2-0.5l0-0.1c0,0,0-0.1,0.1-0.1c0.2-0.4,0.3-0.7,0.5-1.1l0.1,9c-2.1-0.1-4.2-0.6-6-1.5
			C28.1,30,28.5,29.6,28.9,29.3z M4.6,17L4.6,17c0.1-3.6,1.5-7,3.9-9.6l6.7,6.6l0,0c-0.7,0.8-1.1,1.9-1.2,2.9L4.6,17z M14,17.9
			c0.1,1,0.5,2,1.2,2.8l-6.6,6.7c-2.4-2.6-3.8-5.9-4-9.4L14,17.9z M18.9,32L18.9,32c-3.5-0.1-7-1.5-9.6-3.9l5.2-5.4l1.3-1.3
			c0.8,0.7,1.9,1.1,3,1.2L18.9,32z M9.1,6.8c2.6-2.4,6-3.8,9.6-3.9l0.1,9.3c-1.1,0.1-2.1,0.5-3,1.2L9.1,6.8z M19.6,2.9L19.6,2.9
			c3.6,0.1,7,1.5,9.5,3.8l-6.5,6.7l0,0c-0.8-0.7-1.8-1.1-2.9-1.2l0,0L19.6,2.9z M23.5,16.9L23.5,16.9L23.5,16.9L23.5,16.9z"/>
	</g>
	<g>
		<g opacity="0.72">
			<path fill="#FFFFFF" d="M128.7,24.9v1.2h-3.9v-1.2h1.2l4-10.6h1.5l3.9,10.6h1.2v1.2h-3.9v-1.2h1.4l-1-2.8h-4.6l-1,2.8H128.7z
				 M130.6,15.9L130.6,15.9l-1.9,5h3.7L130.6,15.9z"/>
			<path fill="#FFFFFF" d="M144.3,25.4c-0.9,0.5-1.9,0.7-3,0.7c-1.3,0-2.4-0.4-3.2-1.2c-0.8-0.8-1.2-1.9-1.2-3.3
				c0-1.5,0.4-2.6,1.3-3.5c0.9-0.8,2-1.2,3.3-1.2c1,0,1.9,0.2,2.8,0.6v2.1H143v-1.2c-0.4-0.1-0.9-0.2-1.6-0.2c-1,0-1.8,0.3-2.3,0.8
				c-0.5,0.6-0.8,1.4-0.8,2.4c0,1.2,0.3,2,0.8,2.6c0.5,0.6,1.3,0.9,2.4,0.9c0.9,0,1.9-0.3,2.8-0.8V25.4z"/>
			<path fill="#FFFFFF" d="M146,17.7c1.1-0.5,2.2-0.8,3.3-0.8c1,0,1.7,0.2,2.2,0.7c0.5,0.5,0.8,1.2,0.8,2.2v5.1h1.3v1.2h-2.5
				l-0.1-1.3H151c-0.8,0.9-1.7,1.3-2.8,1.3c-0.9,0-1.5-0.2-2-0.7s-0.7-1.1-0.7-1.8c0-1.9,1.5-2.9,4.6-2.9h0.9v-0.9
				c0-0.5-0.1-0.9-0.4-1.2c-0.3-0.3-0.8-0.4-1.4-0.4c-1,0-2,0.3-3.1,0.8V17.7z M149.9,21.9c-2,0-3,0.5-3,1.6c0,0.5,0.1,0.8,0.4,1
				c0.3,0.2,0.7,0.3,1.2,0.3c0.9,0,1.8-0.4,2.6-1.3v-1.7H149.9z"/>
			<path fill="#FFFFFF" d="M159.3,14.3v-1.2h2.6v11.9h1.3v1.2h-2.5l-0.1-1.1h0c-0.7,0.7-1.5,1.1-2.4,1.1c-1.1,0-1.9-0.4-2.6-1.2
				c-0.7-0.8-1-1.9-1-3.2c0-1.4,0.4-2.6,1.1-3.5c0.8-0.9,1.7-1.3,3-1.3c0.7,0,1.3,0.1,2,0.4h0v-3.1H159.3z M160.6,18.6
				c-0.6-0.3-1.2-0.4-1.9-0.4c-0.9,0-1.6,0.3-2.1,0.8c-0.5,0.6-0.7,1.4-0.7,2.5c0,1.1,0.2,1.9,0.7,2.5c0.4,0.6,1.1,0.9,1.9,0.9
				c0.9,0,1.6-0.3,2.1-1V18.6z"/>
			<path fill="#FFFFFF" d="M168.7,24.9c0.9,0,1.9-0.3,2.8-0.9v1.3c-0.9,0.5-1.9,0.8-3,0.8c-1.3,0-2.3-0.4-3.1-1.2
				c-0.8-0.8-1.1-1.9-1.1-3.2c0-1.5,0.4-2.6,1.1-3.5c0.7-0.8,1.7-1.2,3-1.2c1.1,0,1.9,0.4,2.5,1.1c0.6,0.7,0.9,1.7,0.9,3v0.7h-6
				c0,1,0.3,1.8,0.8,2.4C166.9,24.7,167.7,24.9,168.7,24.9z M170.4,20.5c-0.1-1.6-0.8-2.4-2.2-2.4c-0.7,0-1.3,0.2-1.7,0.6
				c-0.4,0.4-0.7,1-0.8,1.7H170.4z"/>
			<path fill="#FFFFFF" d="M172.8,24.9h1.3v-6.8h-1.3V17h2.5l0.1,1.2h0c0.8-0.8,1.7-1.2,2.8-1.2c1.1,0,1.9,0.5,2.3,1.4h0.1
				c0.8-1,1.8-1.4,2.9-1.4c0.8,0,1.5,0.2,1.9,0.7c0.4,0.5,0.6,1.1,0.6,2v5.3h1.3v1.2h-3.9v-1.2h1.3V20c0-0.6-0.1-1.1-0.4-1.4
				s-0.7-0.4-1.2-0.4c-0.9,0-1.7,0.5-2.4,1.4v5.4h1.3v1.2h-3.9v-1.2h1.3V20c0-0.6-0.1-1.1-0.4-1.4s-0.7-0.4-1.2-0.4
				c-0.9,0-1.7,0.5-2.4,1.4v5.4h1.3v1.2h-3.9V24.9z"/>
			<path fill="#FFFFFF" d="M195.6,18.2l-3,8c-0.2,0.6-0.5,1.2-0.7,1.7c-0.2,0.5-0.5,0.9-0.8,1.2c-0.3,0.3-0.6,0.6-1,0.7
				c-0.4,0.2-0.8,0.3-1.3,0.3c-0.3,0-0.7,0-1.1-0.1v-1.2c0.3,0.1,0.7,0.1,1,0.1c0.3,0,0.5,0,0.7-0.1c0.2-0.1,0.4-0.2,0.6-0.3
				c0.2-0.2,0.4-0.5,0.6-0.8c0.2-0.4,0.4-0.9,0.7-1.5h-0.2l-2.8-8h-1.1V17h3.5v1.2h-1l2.2,6.3h0.1l2.4-6.3h-1V17h3.1v1.2H195.6z"/>
		</g>
		<g>
			<path fill="#FFFFFF" d="M51.1,20.8h2.7V24c-0.7,0.4-1.8,0.6-2.9,0.6c-2.7,0-4.7-2.1-4.7-4.8c0-2.8,1.9-4.8,4.5-4.8
				c1.3,0,2.4,0.4,3.3,1.3l0.1,0.1l1.4-1.5l-0.1-0.1c-1.1-1.1-2.6-1.6-4.7-1.6c-3.7,0-6.6,2.8-6.6,6.6c0,3.9,2.8,6.6,6.7,6.6
				c1.4,0,3.4-0.4,4.7-1.2l0.1,0V19h-4.7V20.8z"/>
			<path fill="#FFFFFF" d="M61.3,17.4c-2.5,0-4.5,2-4.5,4.5c0,2.5,2,4.5,4.5,4.5c2.5,0,4.5-2,4.5-4.5C65.8,19.4,63.8,17.4,61.3,17.4
				z M61.3,24.6c-1.5,0-2.6-1.1-2.6-2.7c0-1.6,1-2.7,2.6-2.7c1.5,0,2.6,1.1,2.6,2.7C63.9,23.5,62.8,24.6,61.3,24.6z"/>
			<path fill="#FFFFFF" d="M70.9,17.4c-2.5,0-4.5,2-4.5,4.5c0,2.5,2,4.5,4.5,4.5c2.5,0,4.5-2,4.5-4.5C75.5,19.4,73.5,17.4,70.9,17.4
				z M70.9,24.6c-1.5,0-2.6-1.1-2.6-2.7c0-1.6,1-2.7,2.6-2.7c1.5,0,2.6,1.1,2.6,2.7C73.5,23.5,72.5,24.6,70.9,24.6z"/>
			<path fill="#FFFFFF" d="M83.2,18.6c-0.6-0.7-1.7-1.2-2.8-1.2c-2.5,0-4.3,1.8-4.3,4.5c0,2.6,1.8,4.5,4.3,4.5
				c1.1,0,2.1-0.5,2.8-1.2v1h1.8V13.3h-1.8V18.6z M83.2,21.9c0,1.6-1,2.7-2.6,2.7c-1.5,0-2.6-1.1-2.6-2.7c0-1.6,1-2.7,2.6-2.7
				C82.2,19.1,83.2,20.2,83.2,21.9z"/>
			<path fill="#FFFFFF" d="M90.8,13.4h-3.9v12.7h3.6c4.5,0,6.9-3.2,6.9-6.3C97.4,17.5,96,13.4,90.8,13.4z M88.8,15.3h1.8
				c4.6,0,4.7,4.1,4.7,4.6c0,3.3-2.7,4.5-5.1,4.5h-1.4V15.3z"/>
			<path fill="#FFFFFF" d="M105.3,24.5v-4.2c0-1.4-0.9-2.9-3.6-2.9c-1.3,0-2.5,0.5-3.4,1.3l-0.1,0.1l1.1,1.2l0.2-0.2
				c0.5-0.4,1.1-0.8,2.2-0.8c1.3,0,1.8,0.8,1.8,1.6v0.2h-1c-3,0-4.7,1.1-4.7,3c0,1.5,1.2,2.6,3,2.6c1.2,0,2.1-0.4,2.8-1.2
				c0,0.3,0,0.6,0,0.9l0,0.1h1.7l0-0.1C105.4,25.6,105.3,25.1,105.3,24.5z M103.6,22.2v0.4c0,1.1-0.6,2.3-2.2,2.3
				c-1.1,0-1.6-0.4-1.6-1.2c0-1.2,1.7-1.5,3.2-1.5H103.6z"/>
			<path fill="#FFFFFF" d="M110.6,24.6c-1,0-1-0.7-1-1.8v-3.6h2.2v-1.6h-2.2v-2.3h-1.8v2.3h-1.8v1.6h1.8v4.2c0,1.2,0,2.9,2.6,2.9
				c0.2,0,1.1-0.1,1.5-0.3l0.1,0v-1.8l-0.2,0.1C111.4,24.6,110.9,24.6,110.6,24.6z"/>
			<path fill="#FFFFFF" d="M120.1,26c0-0.4-0.1-0.9-0.1-1.5v-4.2c0-1.4-0.9-2.9-3.6-2.9c-1.3,0-2.5,0.5-3.4,1.3l-0.1,0.1l1.1,1.2
				l0.2-0.2c0.5-0.4,1.1-0.8,2.2-0.8c1.3,0,1.8,0.8,1.8,1.6v0.2h-1c-3,0-4.7,1.1-4.7,3c0,1.5,1.2,2.6,3,2.6c1.2,0,2.1-0.4,2.8-1.2
				c0,0.3,0,0.6,0.1,0.9l0,0.1h1.7L120.1,26z M118.3,22.2v0.4c0,1.1-0.6,2.3-2.2,2.3c-1.1,0-1.6-0.4-1.6-1.2c0-1.2,1.7-1.5,3.2-1.5
				H118.3z"/>
		</g>
	</g>
</g>
</svg>
