<?xml version="1.0" encoding="utf-8"?>
<!-- Generator: Adobe Illustrator 18.1.1, SVG Export Plug-In . SVG Version: 6.00 Build 0)  -->
<!DOCTYPE svg PUBLIC "-//W3C//DTD SVG 1.1//EN" "http://www.w3.org/Graphics/SVG/1.1/DTD/svg11.dtd">
<svg version="1.1" id="Layer_1" xmlns="http://www.w3.org/2000/svg" xmlns:xlink="http://www.w3.org/1999/xlink" x="0px" y="0px"
	 width="50px" height="50px" viewBox="0 0 50 50" enable-background="new 0 0 50 50" xml:space="preserve">
<path fill-rule="evenodd" clip-rule="evenodd" fill="#1DB0DA" d="M50,9.6l-4.7,4.6c0,0,0-0.4,0,0.8c0,0.8-0.1,1.6-0.3,2.4
	c-0.1,6.3-2.2,14.7-10.6,21.4C17.8,51.8,0,40.3,0,40.3c14.1,0,14.1-4.6,14.1-4.6c-3.1,0-9.4-6.1-9.4-6.1c1.6,1.5,4.7,0,4.7,0
	c-7.8-4.6-7.8-9.2-7.8-9.2c1.6,1.5,4.7,0,4.7,0C-1.6,14.2,3.1,6.5,3.1,6.5C4.7,14.2,25,17.3,25,17.3l0.3-0.1
	C25.1,16.5,25,15,25,14.2C25,8.7,29.5,5,35.2,5c3.1,0,5.8,1.4,7.7,3.5l0.9-0.4L48.4,5l-3.1,6.1L50,9.6z"/>
<g>
</g>
<g>
</g>
<g>
</g>
<g>
</g>
<g>
</g>
<g>
</g>
<g>
</g>
<g>
</g>
<g>
</g>
<g>
</g>
<g>
</g>
<g>
</g>
<g>
</g>
<g>
</g>
<g>
</g>
</svg>
