<?xml version="1.0" encoding="utf-8"?>
<!-- Generator: Adobe Illustrator 18.1.1, SVG Export Plug-In . SVG Version: 6.00 Build 0)  -->
<!DOCTYPE svg PUBLIC "-//W3C//DTD SVG 1.1//EN" "http://www.w3.org/Graphics/SVG/1.1/DTD/svg11.dtd">
<svg version="1.1" id="Layer_1" xmlns="http://www.w3.org/2000/svg" xmlns:xlink="http://www.w3.org/1999/xlink" x="0px" y="0px"
	 width="50px" height="50px" viewBox="0 0 50 50" enable-background="new 0 0 50 50" xml:space="preserve">
<g opacity="0.5">
	<g>
		<g>
			<path fill-rule="evenodd" clip-rule="evenodd" fill="#FFFFFF" d="M42.8,3H7.2C4.9,3,3,4.9,3,7.2v35.6C3,45.1,4.9,47,7.2,47h35.6
				c2.3,0,4.2-1.9,4.2-4.2V7.2C47,4.9,45.1,3,42.8,3z M13.8,12.4c1.8,0,2.9,1.3,3,3.1c0,1.7-1.1,3.1-3,3.1h0c-1.8,0-2.9-1.4-2.9-3.1
				C10.9,13.8,12,12.4,13.8,12.4z M17.1,39.2h-6V20.6h6V39.2z M40.7,39.2h-6.2v-9.6c0-2.4-0.7-4.1-2.9-4.1c-1.7,0-2.7,1.1-3.2,2.2
				c-0.2,0.4-0.2,0.9-0.2,1.5v10h-6.4c0,0,0.1-16.7,0-18.4h6.4v2.5c0.8-1.2,2.3-3,5.6-3c4.1,0,6.9,3.1,6.9,8.6V39.2z M28.2,23.3
				L28.2,23.3C28.2,23.3,28.2,23.3,28.2,23.3L28.2,23.3z"/>
		</g>
	</g>
</g>
<g>
</g>
<g>
</g>
<g>
</g>
<g>
</g>
<g>
</g>
<g>
</g>
<g>
</g>
<g>
</g>
<g>
</g>
<g>
</g>
<g>
</g>
<g>
</g>
<g>
</g>
<g>
</g>
<g>
</g>
</svg>
