<?xml version="1.0" encoding="utf-8"?>
<!-- Generator: Adobe Illustrator 18.1.1, SVG Export Plug-In . SVG Version: 6.00 Build 0)  -->
<!DOCTYPE svg PUBLIC "-//W3C//DTD SVG 1.1//EN" "http://www.w3.org/Graphics/SVG/1.1/DTD/svg11.dtd">
<svg version="1.1" id="Layer_1" xmlns="http://www.w3.org/2000/svg" xmlns:xlink="http://www.w3.org/1999/xlink" x="0px" y="0px"
	 width="50px" height="50px" viewBox="-124 126 50 50" enable-background="new -124 126 50 50" xml:space="preserve">
<path opacity="0.5" fill="#FFFFFF" d="M-74,135.6l-4.7,4.6c0,0,0-0.4,0,0.8c0,0.8-0.1,1.6-0.3,2.4c-0.1,6.3-2.2,14.7-10.6,21.4
	c-16.6,13-34.4,1.5-34.4,1.5c14.1,0,14.1-4.6,14.1-4.6c-3.1,0-9.4-6.1-9.4-6.1c1.6,1.5,4.7,0,4.7,0c-7.8-4.6-7.8-9.2-7.8-9.2
	c1.6,1.5,4.7,0,4.7,0c-7.9-6.2-3.2-13.9-3.2-13.9c1.6,7.7,21.9,10.8,21.9,10.8l0.3-0.1c-0.2-0.7-0.3-2.2-0.3-3
	c0-5.5,4.5-9.2,10.2-9.2c3.1,0,5.8,1.4,7.7,3.5l0.9-0.4l4.6-3.1l-3.1,6.1L-74,135.6z"/>
</svg>
